<svg width="239" height="84" viewBox="0 0 239 84" fill="none" xmlns="http://www.w3.org/2000/svg">
<mask id="mask0_113_5198" style="mask-type:luminance" maskUnits="userSpaceOnUse" x="0" y="0" width="239" height="84">
<path d="M238.583 0.605469H0.583008V83.2645H238.583V0.605469Z" fill="white"/>
</mask>
<g mask="url(#mask0_113_5198)">
<path d="M54.1135 49.4126L51.7522 51.7756L49.3909 54.1369C42.8697 60.6581 42.8697 71.2321 49.3909 77.7533L54.9023 83.2647L55.2967 82.8703C62.9059 75.2628 62.9059 62.9259 55.2967 55.3184C62.9059 62.9276 75.2411 62.9276 82.8503 55.3184L83.2447 54.924L77.735 49.4126C71.2087 42.8914 60.6347 42.8914 54.1135 49.4126Z" fill="#F7A809"/>
</g>
<mask id="mask1_113_5198" style="mask-type:luminance" maskUnits="userSpaceOnUse" x="0" y="0" width="239" height="84">
<path d="M238.583 0.605469H0.583008V83.2645H238.583V0.605469Z" fill="white"/>
</mask>
<g mask="url(#mask1_113_5198)">
<path d="M51.7529 32.0945L54.1142 34.4558C60.6354 40.977 71.2094 40.977 77.7306 34.4558L83.242 28.9445L82.8476 28.5501C75.2384 20.9409 62.9032 20.9409 55.294 28.5501C62.9032 20.9409 62.9032 8.60566 55.294 0.996469L54.9013 0.605469L49.3899 6.11517C42.8687 12.6364 42.8687 23.2104 49.3899 29.7316L51.7529 32.0945Z" fill="#F7A809"/>
</g>
<mask id="mask2_113_5198" style="mask-type:luminance" maskUnits="userSpaceOnUse" x="0" y="0" width="239" height="84">
<path d="M238.583 0.605469H0.583008V83.2645H238.583V0.605469Z" fill="white"/>
</mask>
<g mask="url(#mask2_113_5198)">
<path d="M32.0721 51.7754L29.7108 49.4141C23.1896 42.8929 12.6156 42.8929 6.0944 49.4141L0.583008 54.9238L0.977408 55.3182C8.5866 62.9274 20.9218 62.9274 28.5293 55.3182C20.9201 62.9274 20.9201 75.2626 28.5293 82.8701L28.9237 83.2645L34.4334 77.7548C40.9546 71.2336 40.9546 60.6596 34.4334 54.1384L32.0721 51.7754Z" fill="#F7A809"/>
</g>
<mask id="mask3_113_5198" style="mask-type:luminance" maskUnits="userSpaceOnUse" x="0" y="0" width="239" height="84">
<path d="M238.583 0.605469H0.583008V83.2645H238.583V0.605469Z" fill="white"/>
</mask>
<g mask="url(#mask3_113_5198)">
<path d="M51.377 41.9341C51.377 36.7066 47.1389 32.4702 41.9131 32.4702C36.6856 32.4702 32.4492 36.7083 32.4492 41.9341C32.4492 47.1599 36.6856 51.398 41.9131 51.398C47.1389 51.3997 51.377 47.1616 51.377 41.9341Z" fill="#A51631"/>
</g>
<mask id="mask4_113_5198" style="mask-type:luminance" maskUnits="userSpaceOnUse" x="0" y="0" width="239" height="84">
<path d="M238.583 0.605469H0.583008V83.2645H238.583V0.605469Z" fill="white"/>
</mask>
<g mask="url(#mask4_113_5198)">
<path d="M29.7108 34.4558L32.0721 32.0945L34.4334 29.7332C40.9546 23.2121 40.9546 12.6381 34.4334 6.11687L28.9237 0.605469L28.5293 0.999869C20.9218 8.60906 20.9218 20.9443 28.5293 28.5535C20.9218 20.9443 8.5849 20.9443 0.977408 28.5535L0.583008 28.9462L6.0927 34.4558C12.6156 40.977 23.1879 40.977 29.7108 34.4558Z" fill="#F7A809"/>
</g>
<mask id="mask5_113_5198" style="mask-type:luminance" maskUnits="userSpaceOnUse" x="0" y="0" width="239" height="84">
<path d="M238.583 0.605469H0.583008V83.2645H238.583V0.605469Z" fill="white"/>
</mask>
<g mask="url(#mask5_113_5198)">
<path d="M130.975 50.5718L127.617 57.5146L124.334 50.5718H119.714V61.3464H122.915V54.0228L126.337 61.3464H128.664L132.1 54.0262V61.3464H135.361V50.5718H130.975Z" fill="#3F2524"/>
</g>
<mask id="mask6_113_5198" style="mask-type:luminance" maskUnits="userSpaceOnUse" x="0" y="0" width="239" height="84">
<path d="M238.583 0.605469H0.583008V83.2645H238.583V0.605469Z" fill="white"/>
</mask>
<g mask="url(#mask6_113_5198)">
<path d="M141.546 50.5718H138.212V61.3447H141.546V50.5718Z" fill="#3F2524"/>
</g>
<mask id="mask7_113_5198" style="mask-type:luminance" maskUnits="userSpaceOnUse" x="0" y="0" width="239" height="84">
<path d="M238.583 0.605469H0.583008V83.2645H238.583V0.605469Z" fill="white"/>
</mask>
<g mask="url(#mask7_113_5198)">
<path d="M154.147 50.5718V57.2834L147.857 50.5718H144.397V61.3464H147.643V54.5175L154.108 61.3464H157.379V50.5718H154.147Z" fill="#3F2524"/>
</g>
<mask id="mask8_113_5198" style="mask-type:luminance" maskUnits="userSpaceOnUse" x="0" y="0" width="239" height="84">
<path d="M238.583 0.605469H0.583008V83.2645H238.583V0.605469Z" fill="white"/>
</mask>
<g mask="url(#mask8_113_5198)">
<path d="M163.535 58.9834V57.1032H170.325V54.6824H163.535V52.9059H170.546V50.5718H160.229V61.3464H170.634V58.9834H163.535Z" fill="#3F2524"/>
</g>
<mask id="mask9_113_5198" style="mask-type:luminance" maskUnits="userSpaceOnUse" x="0" y="0" width="239" height="84">
<path d="M238.583 0.605469H0.583008V83.2645H238.583V0.605469Z" fill="white"/>
</mask>
<g mask="url(#mask9_113_5198)">
<path d="M185.862 60.3179V58.8899C185.862 57.4483 185.055 56.5626 183.462 56.2566L183.013 56.1716L183.46 56.0747C184.909 55.767 185.772 54.8303 185.772 53.5723V53.4397C185.772 52.2089 185.305 50.5718 181.257 50.5718H173.218V61.3447H176.553V57.7798H180.342C181.913 57.7798 182.496 58.3272 182.496 59.8028V60.7157C182.496 61.0982 182.529 61.2699 182.552 61.3447H186.012C185.913 61.1594 185.862 60.9112 185.862 60.3179ZM182.292 54.1333C182.292 54.8881 181.786 55.2723 180.786 55.2723H176.555V53.0096H180.786C181.786 53.0096 182.292 53.3768 182.292 54.1044V54.1333Z" fill="#3F2524"/>
</g>
<mask id="mask10_113_5198" style="mask-type:luminance" maskUnits="userSpaceOnUse" x="0" y="0" width="239" height="84">
<path d="M238.583 0.605469H0.583008V83.2645H238.583V0.605469Z" fill="white"/>
</mask>
<g mask="url(#mask10_113_5198)">
<path d="M196.588 50.5718H192.069L187.175 61.3447H190.49L191.33 59.4441H197.239L198.094 61.3447H201.643L196.588 50.5718ZM192.322 57.2154L194.26 52.8005L196.246 57.2154H192.322Z" fill="#3F2524"/>
</g>
<mask id="mask11_113_5198" style="mask-type:luminance" maskUnits="userSpaceOnUse" x="0" y="0" width="239" height="84">
<path d="M238.583 0.605469H0.583008V83.2645H238.583V0.605469Z" fill="white"/>
</mask>
<g mask="url(#mask11_113_5198)">
<path d="M206.627 58.6723V50.5718H203.293V61.3464H213.257V58.6723H206.627Z" fill="#3F2524"/>
</g>
<mask id="mask12_113_5198" style="mask-type:luminance" maskUnits="userSpaceOnUse" x="0" y="0" width="239" height="84">
<path d="M238.583 0.605469H0.583008V83.2645H238.583V0.605469Z" fill="white"/>
</mask>
<g mask="url(#mask12_113_5198)">
<path d="M108.368 39.9382C103.182 39.9382 101.335 36.7898 101.335 33.8437V33.4493C101.335 31.6626 102.019 27.5061 108.338 27.5061C113.654 27.5061 114.842 30.0085 115.105 31.1033H122.016C121.972 28.385 120.552 22.4299 109.033 22.4299H107.642C95.3411 22.4299 94.3857 30.7021 94.3857 33.2368V34.1446C94.3857 36.7082 95.3411 45.0722 107.642 45.0722H109.033C120.882 45.0722 121.984 38.483 122.016 36.2781H115.107C114.852 37.3916 113.679 39.9382 108.368 39.9382Z" fill="#3F2524"/>
</g>
<mask id="mask13_113_5198" style="mask-type:luminance" maskUnits="userSpaceOnUse" x="0" y="0" width="239" height="84">
<path d="M238.583 0.605469H0.583008V83.2645H238.583V0.605469Z" fill="white"/>
</mask>
<g mask="url(#mask13_113_5198)">
<path d="M152.92 42.7026V39.7701C152.92 36.8648 151.289 35.0781 148.075 34.461L146.672 34.1924L148.07 33.8949C150.994 33.271 152.74 31.3874 152.74 28.8561V28.5842C152.74 27.5115 152.585 25.9475 151.255 24.7524C149.812 23.4536 147.225 22.7957 143.563 22.7957H127.163V44.7137H133.81V37.3935H141.69C144.986 37.3935 146.212 38.5461 146.212 41.6435V43.5186C146.212 44.202 146.261 44.5454 146.302 44.712H153.17C153.006 44.3295 152.92 43.7923 152.92 42.7026ZM145.788 30.0036C145.788 31.6186 144.714 32.438 142.596 32.438H133.81V27.5965H142.596C144.714 27.5965 145.788 28.3853 145.788 29.9425V30.0036Z" fill="#3F2524"/>
</g>
<mask id="mask14_113_5198" style="mask-type:luminance" maskUnits="userSpaceOnUse" x="0" y="0" width="239" height="84">
<path d="M238.583 0.605469H0.583008V83.2645H238.583V0.605469Z" fill="white"/>
</mask>
<g mask="url(#mask14_113_5198)">
<path d="M175.129 22.7939H165.974L156.018 44.712H162.607L164.331 40.8105H176.589L178.342 44.712H185.411L175.129 22.7939ZM166.284 36.4313L170.413 27.0235L174.644 36.4313H166.284Z" fill="#3F2524"/>
</g>
<mask id="mask15_113_5198" style="mask-type:luminance" maskUnits="userSpaceOnUse" x="0" y="0" width="239" height="84">
<path d="M238.583 0.605469H0.583008V83.2645H238.583V0.605469Z" fill="white"/>
</mask>
<g mask="url(#mask15_113_5198)">
<path d="M210.01 27.5063V22.7939H189.212V44.712H195.828V36.5792H209.586V31.7444H195.828V27.5063H210.01Z" fill="#3F2524"/>
</g>
<path d="M214.248 22.7939V27.899H223.107V44.712H229.725V27.899H238.584V22.7939H214.248Z" fill="#3F2524"/>
</svg>
