<svg width="1440" height="716" viewBox="0 0 1440 716" fill="none" xmlns="http://www.w3.org/2000/svg">
<g clip-path="url(#clip0_102_582)">
<rect width="1761" height="899" transform="translate(-173)" fill="#157BC0"/>
<path fill-rule="evenodd" clip-rule="evenodd" d="M577.206 -69.7257C734.932 -50.7775 904.614 -73.6163 1024.22 34.648C1150.05 148.536 1200.27 324.986 1204.54 498.098C1208.94 676.214 1183.6 876.823 1047.7 985.89C918.714 1089.41 740.314 999.381 577.206 1001.58C409.88 1003.84 221.721 1111.22 94.2989 998.756C-35.1993 884.464 19.8987 673.887 6.73622 498.098C-8.39598 296.002 -128.024 53.5521 13.014 -86.8322C154.104 -227.268 382.917 -93.0662 577.206 -69.7257Z" fill="#E0AC52"/>
<path fill-rule="evenodd" clip-rule="evenodd" d="M273.206 -69.7257C430.932 -50.7775 600.614 -73.6163 720.225 34.648C846.049 148.536 896.268 324.986 900.541 498.098C904.937 676.214 879.6 876.823 743.703 985.89C614.714 1089.41 436.314 999.381 273.206 1001.58C105.88 1003.84 -82.2785 1111.22 -209.701 998.756C-339.199 884.464 -284.101 673.887 -297.264 498.098C-312.396 296.002 -432.024 53.5521 -290.986 -86.8322C-149.896 -227.268 78.9175 -93.0662 273.206 -69.7257Z" fill="#FDCF80"/>
</g>
<defs>
<clipPath id="clip0_102_582">
<rect width="1761" height="899" fill="white" transform="translate(-173)"/>
</clipPath>
</defs>
</svg>
