<svg width="40" height="40" viewBox="0 0 40 40" fill="none" xmlns="http://www.w3.org/2000/svg">
<circle cx="20.0002" cy="14.9997" r="6.66667" fill="#009BC1"/>
<circle cx="28.3335" cy="15" r="5" fill="#009BC1"/>
<circle cx="11.6665" cy="15" r="5" fill="#009BC1"/>
<path d="M28.333 21.667C32.8457 21.667 34.3662 26.654 34.8232 28.9121C34.9406 29.492 34.4862 30 33.8945 30H29.2783C28.6067 27.4846 27.3101 24.6305 24.7988 23C25.7022 22.2025 26.8566 21.6671 28.333 21.667Z" fill="#009BC1"/>
<path d="M11.6665 21.667C13.1426 21.667 14.2974 22.2018 15.2007 22.999C12.6893 24.6295 11.3929 27.4845 10.7212 30H6.10498C5.51336 30 5.05891 29.492 5.17627 28.9121C5.63335 26.654 7.15385 21.6671 11.6665 21.667Z" fill="#009BC1"/>
<path d="M19.9998 23.333C26.7064 23.333 28.0156 29.8099 28.2712 32.3386C28.3267 32.8881 27.8855 33.333 27.3332 33.333H12.6665C12.1142 33.333 11.673 32.8881 11.7285 32.3386C11.9841 29.8099 13.2933 23.333 19.9998 23.333Z" fill="#009BC1"/>
</svg>
