<svg width="132" height="23" viewBox="0 0 132 23" fill="none" xmlns="http://www.w3.org/2000/svg">
<mask id="mask0_713_1291" style="mask-type:alpha" maskUnits="userSpaceOnUse" x="0" y="0" width="132" height="23">
<path d="M15.195 9.03518C14.7363 9.51207 14.3049 9.96221 13.7501 10.541C12.9416 9.67636 12.2141 8.86355 11.449 8.08783C10.1148 6.73503 8.7595 5.40293 7.40878 4.06647C6.75277 3.41739 5.97822 3.13551 5.05645 3.35114C3.46121 3.72431 2.74713 5.67538 3.7456 6.98036C4.05815 7.38886 4.44146 7.74322 4.80934 8.14068C4.74709 8.21289 4.6942 8.28013 4.63532 8.34165C3.98 9.02632 3.32375 9.7101 2.66712 10.3948C1.47063 9.37978 0.497312 8.34387 0.146514 6.84267C-0.737295 3.06055 2.50522 -0.438881 6.43283 0.0695617C7.79817 0.246311 8.87077 0.935602 9.81761 1.88768C11.838 3.91925 13.869 5.9403 15.8945 7.96681C15.9438 8.01619 15.9797 8.07903 16.1311 8.26156C15.8281 8.51052 15.5252 8.75948 15.195 9.03518Z" fill="black"/>
<path d="M20.6077 20.5843C18.2402 22.6872 15.1129 22.6419 12.8819 20.4545C10.7719 18.3859 8.69779 16.2807 6.60897 14.1906C6.53434 14.1159 6.47112 14.0298 6.41797 13.9671C7.14721 13.2116 7.86328 12.4698 8.69415 11.609C9.68665 12.647 10.6396 13.6665 11.618 14.661C12.774 15.8361 13.9326 17.01 15.1258 18.1469C16.3763 19.3384 18.2888 18.9992 18.8641 17.4815C19.224 16.5319 19.1116 15.6023 18.3792 14.8327C18.1086 14.5484 17.7805 14.3188 17.5343 14.1112C18.328 13.2801 19.028 12.5471 19.7249 11.8172C22.8776 14.148 23.2503 17.8009 20.6077 20.5843Z" fill="black"/>
<path d="M20.9747 9.11009C18.7058 11.3442 16.464 13.5514 14.2096 15.771C13.5444 15.0785 12.8402 14.3455 12.0234 13.4955C12.7603 12.7979 13.5598 12.0636 14.3339 11.3033C15.6762 9.985 17.0116 8.65932 18.3329 7.31991C19.1954 6.44554 19.2804 5.00836 18.5573 4.12427C17.8296 3.23454 16.5505 2.99425 15.6054 3.6406C15.1235 3.97018 14.7288 4.42723 14.2936 4.8276C13.5804 4.09573 12.8519 3.34828 12.1158 2.59301C14.3195 -0.235024 17.7256 -0.836493 20.2302 1.21748C22.7381 3.27418 23.0683 6.63927 20.9747 9.11009Z" fill="black"/>
<path d="M4.45174 18.581C6.14584 19.3555 7.19454 18.391 8.16684 17.2169C8.92502 17.9903 9.63822 18.7178 10.3529 19.4469C8.7733 21.4112 7.34944 22.4545 4.71241 22.02C2.24932 21.6141 0.653958 20.0911 0.129315 17.6321C-0.266852 15.7753 0.268876 14.1222 1.62936 12.7638C3.55857 10.8376 5.48829 8.9119 7.41284 6.98103C7.65244 6.74064 7.8618 6.47011 8.09896 6.19772C8.89958 7.00292 9.62799 7.7355 10.3911 8.50295C9.60496 9.28223 8.81752 10.0594 8.03393 10.8404C6.6945 12.1755 5.34963 13.5052 4.02185 14.8518C2.90101 15.9885 3.07872 17.5651 4.45174 18.581Z" fill="black"/>
<path d="M115.976 6.52002L119.228 15.9818L122.595 6.58825H123.777L127.144 15.9818L130.419 6.52002H131.784L127.849 17.4374H126.461L123.186 8.33959L119.911 17.4374H118.546L114.611 6.52002H115.976Z" fill="black"/>
<path d="M101.83 11.9789C101.83 10.22 102.391 8.83258 103.513 7.81665C104.65 6.78556 106 6.27002 107.562 6.27002C109.139 6.27002 110.488 6.78556 111.61 7.81665C112.747 8.83258 113.316 10.22 113.316 11.9789C113.316 13.7378 112.747 15.1328 111.61 16.1639C110.488 17.1799 109.139 17.6878 107.562 17.6878C106 17.6878 104.658 17.1723 103.536 16.1412C102.399 15.1253 101.83 13.7378 101.83 11.9789ZM103.127 11.9789C103.127 13.3588 103.551 14.4505 104.4 15.2541C105.265 16.0578 106.326 16.4596 107.584 16.4596C108.843 16.4596 109.897 16.0578 110.746 15.2541C111.595 14.4505 112.02 13.3588 112.02 11.9789C112.02 10.5991 111.595 9.50734 110.746 8.70369C109.897 7.90005 108.843 7.49823 107.584 7.49823C106.326 7.49823 105.265 7.90005 104.4 8.70369C103.551 9.50734 103.127 10.5991 103.127 11.9789Z" fill="black"/>
<path d="M97.6719 0.833984H98.9683V17.4376H97.6719V0.833984Z" fill="black"/>
<path d="M87.9805 7.72558V6.52012H89.9592V4.97349C89.9592 3.66946 90.308 2.72935 91.0055 2.15315C91.7182 1.56179 92.5976 1.26611 93.6439 1.26611C94.6446 1.26611 95.5393 1.43291 96.3277 1.76649V2.97196C95.6302 2.62321 94.8342 2.44883 93.9396 2.44883C92.1352 2.44883 91.2329 3.30555 91.2329 5.01898V6.52012H95.6454V7.72558H91.2329V17.4375H89.9592V7.72558H87.9805Z" fill="black"/>
<path d="M77.0352 12.1378C77.0352 11.137 77.2095 10.2424 77.5583 9.45394C77.9222 8.66546 78.3998 8.04377 78.9912 7.58888C79.5826 7.11882 80.2346 6.77007 80.9472 6.54262C81.6599 6.30002 82.4105 6.17871 83.199 6.17871C84.4575 6.17871 85.5796 6.44407 86.5652 6.97477V9.74962C85.716 9.20375 84.7456 8.93081 83.6538 8.93081C82.6986 8.93081 81.8949 9.181 81.2429 9.68138C80.5909 10.1818 80.2649 10.9475 80.2649 11.9786C80.2649 12.9642 80.5909 13.7223 81.2429 14.2531C81.8949 14.7686 82.6834 15.0264 83.6084 15.0264C84.7759 15.0264 85.7994 14.761 86.6789 14.2303V17.0279C85.5416 17.5131 84.3134 17.7557 82.9942 17.7557C81.3566 17.7557 79.9541 17.2781 78.7865 16.3228C77.6189 15.3524 77.0352 13.9574 77.0352 12.1378Z" fill="black"/>
<path d="M74.9247 6.52036V17.4378H71.7632V6.52036H74.9247ZM72.0134 1.58477C72.3621 1.28151 72.8018 1.12988 73.3325 1.12988C73.8633 1.12988 74.303 1.28151 74.6517 1.58477C75.0156 1.88804 75.1976 2.32776 75.1976 2.90396C75.1976 3.49532 75.0232 3.94263 74.6745 4.24589C74.3257 4.54916 73.8784 4.70079 73.3325 4.70079C72.8018 4.70079 72.3621 4.54916 72.0134 4.24589C71.6646 3.94263 71.4902 3.49532 71.4902 2.90396C71.4902 2.32776 71.6646 1.88804 72.0134 1.58477Z" fill="black"/>
<path d="M56.9766 11.9788C56.9766 10.3867 57.4542 9.02957 58.4095 7.90751C59.3647 6.77028 60.6688 6.20166 62.3215 6.20166C64.035 6.20166 65.3542 6.83851 66.2791 8.11221V6.52008H69.054V17.1418C69.054 18.1426 68.8796 19.0145 68.5308 19.7575C68.1821 20.5156 67.7044 21.0994 67.0979 21.5088C66.5066 21.9334 65.847 22.2442 65.1191 22.4413C64.3913 22.6536 63.6104 22.7597 62.7764 22.7597C61.1085 22.7597 59.5694 22.4186 58.1593 21.7362V18.9614C59.433 19.7195 60.8356 20.0986 62.367 20.0986C64.7325 20.0986 65.9152 19.1585 65.9152 17.2783V16.2775C65.0206 17.2631 63.8227 17.7559 62.3215 17.7559C60.6688 17.7559 59.3647 17.1873 58.4095 16.0501C57.4542 14.928 56.9766 13.5709 56.9766 11.9788ZM60.9796 14.185C61.4952 14.7915 62.1927 15.0948 63.0721 15.0948C63.7241 15.0948 64.3003 14.928 64.8007 14.5944C65.3163 14.2608 65.6878 13.8439 65.9152 13.3435V10.6823C65.6878 10.1668 65.3163 9.73466 64.8007 9.38591C64.3003 9.03716 63.7241 8.86278 63.0721 8.86278C62.1927 8.86278 61.4952 9.16604 60.9796 9.77257C60.4641 10.3639 60.2063 11.0993 60.2063 11.9788C60.2063 12.8583 60.4641 13.5937 60.9796 14.185Z" fill="black"/>
<path d="M43.4727 11.9788C43.4727 10.1592 44.0564 8.74148 45.224 7.72555C46.3915 6.70962 47.8169 6.20166 49.5 6.20166C51.1982 6.20166 52.6236 6.70962 53.776 7.72555C54.9435 8.74148 55.5273 10.1592 55.5273 11.9788C55.5273 13.7984 54.9435 15.2161 53.776 16.232C52.6236 17.248 51.1982 17.7559 49.5 17.7559C47.8169 17.7559 46.3915 17.248 45.224 16.232C44.0564 15.2161 43.4727 13.7984 43.4727 11.9788ZM46.7024 11.9788C46.7024 12.8431 46.945 13.5558 47.4302 14.1168C47.9306 14.6627 48.6205 14.9356 49.5 14.9356C50.3794 14.9356 51.0694 14.6551 51.5697 14.094C52.0701 13.5482 52.3203 12.8431 52.3203 11.9788C52.3203 11.1145 52.0701 10.4094 51.5697 9.86354C51.0694 9.30251 50.3794 9.02199 49.5 9.02199C48.6205 9.02199 47.9306 9.30251 47.4302 9.86354C46.945 10.4094 46.7024 11.1145 46.7024 11.9788Z" fill="black"/>
<path d="M31.3457 1.5166H34.7574V14.3673H42.5588V17.4378H31.3457V1.5166Z" fill="black"/>
</mask>
<g mask="url(#mask0_713_1291)">
<path d="M-28.5059 -42.9116H163.231V60.1973H-28.5059V-42.9116Z" fill="#939393"/>
</g>
</svg>
