<svg id="visual" viewBox="0 0 900 600" width="900" height="600" xmlns="http://www.w3.org/2000/svg" xmlns:xlink="http://www.w3.org/1999/xlink" version="1.1"><path d="M809 600L755 550C701 500 593 400 605 300C617 200 749 100 815 50L881 0L900 0L900 50C900 100 900 200 900 300C900 400 900 500 900 550L900 600Z" fill="#6b54f0"></path><path d="M458 600L459.5 550C461 500 464 400 426.5 300C389 200 311 100 272 50L233 0L882 0L816 50C750 100 618 200 606 300C594 400 702 500 756 550L810 600Z" fill="#1a00e2"></path><path d="M0 600L0 550C0 500 0 400 0 300C0 200 0 100 0 50L0 0L234 0L273 50C312 100 390 200 427.5 300C465 400 462 500 460.5 550L459 600Z" fill="#000da7"></path></svg>