<?xml version="1.0" encoding="utf-8"?>
<!-- Generator: Adobe Illustrator 27.7.0, SVG Export Plug-In . SVG Version: 6.00 Build 0)  -->
<svg version="1.1" id="visual" xmlns="http://www.w3.org/2000/svg" xmlns:xlink="http://www.w3.org/1999/xlink" x="0px" y="0px"
	 viewBox="0 0 900 600" style="enable-background:new 0 0 900 600;" xml:space="preserve">
<style type="text/css">
	.st0{fill:#000DA7;}
	.st1{fill:#1A00E2;}
	.st2{fill:#3329FF;}
</style>
<path class="st0" d="M323,600l91.5-50C506,500,689,400,707,300S578,100,504.5,50L431,0h469v50c0,50,0,150,0,250s0,200,0,250v50H323z
	"/>
<path class="st1" d="M161,600l58.5-50C278,500,395,400,431,300s-9-200-31.5-250L377,0h55l73.5,50C579,100,726,200,708,300
	S507,500,415.5,550L324,600H161z"/>
<path class="st2" d="M0,600v-50c0-50,0-150,0-250S0,100,0,50V0h378l22.5,50C423,100,468,200,432,300S279,500,220.5,550L162,600H0z"
	/>
</svg>
