<svg width="67" height="11" viewBox="0 0 67 11" fill="none" xmlns="http://www.w3.org/2000/svg">
<path d="M5.5 0.830078L6.62257 4.28499H10.2553L7.31636 6.42025L8.43893 9.87516L5.5 7.73991L2.56107 9.87516L3.68364 6.42025L0.744718 4.28499H4.37743L5.5 0.830078Z" fill="#FFD400"/>
<path d="M19.5 0.830078L20.6226 4.28499H24.2553L21.3164 6.42025L22.4389 9.87516L19.5 7.73991L16.5611 9.87516L17.6836 6.42025L14.7447 4.28499H18.3774L19.5 0.830078Z" fill="#FFD400"/>
<path d="M33.5 0.830078L34.6226 4.28499H38.2553L35.3164 6.42025L36.4389 9.87516L33.5 7.73991L30.5611 9.87516L31.6836 6.42025L28.7447 4.28499H32.3774L33.5 0.830078Z" fill="#FFD400"/>
<path d="M47.5 0.830078L48.6226 4.28499H52.2553L49.3164 6.42025L50.4389 9.87516L47.5 7.73991L44.5611 9.87516L45.6836 6.42025L42.7447 4.28499H46.3774L47.5 0.830078Z" fill="#FFD400"/>
<path d="M61.5 0.830078L62.6226 4.28499H66.2553L63.3164 6.42025L64.4389 9.87516L61.5 7.73991L58.5611 9.87516L59.6836 6.42025L56.7447 4.28499H60.3774L61.5 0.830078Z" fill="#FFD400"/>
</svg>
