<svg width="252" height="54" viewBox="0 0 252 54" fill="none" xmlns="http://www.w3.org/2000/svg">
<path d="M133.161 39.1162V46.7096H134.498V50.697H131.717V48.6674H126.762V50.697H124.01V46.7096H125.202C125.295 46.4721 125.389 46.2202 125.469 45.9899C125.563 45.7069 125.64 45.4184 125.7 45.1262C125.772 44.8167 125.837 44.4712 125.888 44.1041C125.938 43.7371 125.982 43.3124 126.018 42.859L126.307 39.1522L133.161 39.1162ZM128.661 41.2756L128.56 42.9598C128.523 43.6493 128.434 44.335 128.293 45.0111C128.175 45.5785 128.016 46.1366 127.816 46.6809H130.395V41.2756H128.661ZM138.896 39.1162V42.715H141.287V39.1162H144.068V48.6674H141.287V45.0183H138.896V48.6674H136.108V39.1162H138.896ZM153.342 39.1162V41.3835H149.406V42.823H152.223V44.8023H149.406V46.4361H153.451V48.6602H146.618V39.1162H153.342ZM163.375 39.1162V48.6674H160.593V41.3043H158.318V48.6674H155.531V39.1162H163.375ZM170.056 39.1162C170.572 39.1085 171.085 39.1889 171.572 39.3538C171.995 39.4963 172.382 39.727 172.707 40.0303C173.022 40.3214 173.268 40.6776 173.429 41.074C173.593 41.5112 173.674 41.975 173.668 42.4415C173.674 42.9023 173.599 43.3607 173.443 43.7947C173.301 44.1958 173.069 44.559 172.763 44.8561C172.457 45.1531 172.088 45.3761 171.681 45.5077C171.219 45.6754 170.728 45.7559 170.237 45.7451H168.713V48.6674H165.903V39.1162H170.056ZM168.719 43.7443H169.947C170.085 43.7588 170.223 43.7381 170.35 43.6838C170.476 43.6296 170.586 43.5438 170.67 43.4348C170.824 43.1455 170.895 42.8189 170.872 42.4919C170.899 42.1647 170.828 41.837 170.67 41.5491C170.585 41.4432 170.473 41.3605 170.347 41.3089C170.221 41.2574 170.084 41.2384 169.947 41.2539H168.719V43.7443Z" fill="#D9D9D9"/>
<path d="M128.864 34.7259H124.19L129.564 18.805H134.765L140.146 34.7259H135.43L134.635 31.9404H129.637L128.864 34.7259ZM130.511 28.7088H133.725L132.114 22.9508H132.071L130.511 28.7088ZM154.772 23.0155C154.796 23.7234 154.65 24.4266 154.347 25.0669C153.979 25.7047 153.399 26.1938 152.707 26.4487V26.4919C153.568 26.6963 154.334 27.1891 154.873 27.8882C155.326 28.541 155.561 29.319 155.546 30.1123C155.553 30.7641 155.446 31.4123 155.228 32.0268C155.015 32.5883 154.659 33.0847 154.194 33.4663C153.647 33.8979 153.014 34.2116 152.338 34.3876C151.437 34.6282 150.505 34.7397 149.572 34.7187H142.5V18.805H148.763C149.7 18.786 150.634 18.9024 151.536 19.1505C152.213 19.3301 152.847 19.6435 153.399 20.0718C153.851 20.4284 154.21 20.8874 154.448 21.4106C154.666 21.9175 154.776 22.4639 154.772 23.0155ZM147.044 25.1748H148.915C149.381 25.2258 149.85 25.1083 150.237 24.8437C150.37 24.6937 150.469 24.5176 150.53 24.3267C150.592 24.1359 150.612 23.9344 150.59 23.7354C150.613 23.5495 150.592 23.361 150.53 23.184C150.469 23.007 150.368 22.8461 150.237 22.7132C149.828 22.488 149.358 22.3924 148.893 22.4397H147.044V25.1748ZM147.044 31.2567H149.211C149.68 31.3011 150.149 31.1815 150.54 30.9184C150.685 30.7664 150.795 30.5846 150.863 30.3857C150.93 30.1867 150.953 29.9754 150.93 29.7668C150.954 29.562 150.933 29.3545 150.869 29.1583C150.806 28.9621 150.701 28.7819 150.561 28.6296C150.154 28.3917 149.681 28.2884 149.211 28.3345H147.044V31.2567ZM161.83 34.7691H157.156L162.53 18.8482H167.731L173.126 34.7259H168.395L167.601 31.9404H162.595L161.83 34.7691ZM163.476 28.752H166.697L165.087 22.994H165.044L163.476 28.752ZM180.089 18.8482V24.8221H184.105V18.8482H188.735V34.7691H184.105V28.6439H180.118V34.7259H175.466V18.805L180.089 18.8482ZM203.138 18.8482V22.5837H197.497V34.7259H192.981V18.805L203.138 18.8482ZM207.32 34.7691H202.654L208.028 18.8482H213.228L218.631 34.7259H213.915L213.127 31.9404H208.121L207.32 34.7691ZM208.974 28.752H212.195L210.585 22.994H210.541L208.974 28.752ZM227.84 18.8482C228.699 18.8377 229.554 18.9715 230.368 19.244C231.07 19.4806 231.712 19.8634 232.253 20.3669C232.764 20.8575 233.163 21.4515 233.423 22.1087C233.704 22.834 233.841 23.6061 233.827 24.383C233.841 25.1528 233.713 25.9185 233.453 26.6431C233.223 27.2949 232.851 27.8876 232.362 28.3776C231.863 28.875 231.261 29.2581 230.6 29.5005C229.841 29.7764 229.037 29.9106 228.23 29.8964H225.636V34.7691H220.992V18.805L227.84 18.8482ZM225.636 26.5136H227.688C227.913 26.5364 228.14 26.5007 228.346 26.4098C228.552 26.3189 228.731 26.176 228.865 25.9953C229.131 25.5167 229.251 24.9717 229.212 24.4262C229.253 23.8807 229.132 23.3352 228.865 22.8573C228.727 22.6828 228.546 22.5463 228.34 22.4606C228.135 22.375 227.91 22.3431 227.688 22.3679H225.636V26.5136ZM248.887 18.805V31.4583H251.134V38.1302H246.504V34.7474H238.219V38.1302H233.64V31.4798H235.619C235.783 31.0816 235.935 30.664 236.074 30.2274C236.211 29.7883 236.341 29.3061 236.457 28.788C236.573 28.2697 236.68 27.694 236.768 27.075C236.854 26.456 236.926 25.7578 236.991 25.0021L237.475 18.8266L248.887 18.805ZM241.398 22.4542L241.217 25.2611C241.16 26.4106 241.012 27.5536 240.776 28.68C240.579 29.624 240.313 30.5524 239.981 31.4583H244.28V22.4542H241.398Z" fill="#D9D9D9"/>
<path d="M50.0818 8.59232L50.4574 7.87258C51.0071 6.77826 51.8516 5.85797 52.8963 5.21478C53.9412 4.57157 55.145 4.2308 56.3731 4.23065H58.3809C60.1355 4.22861 61.8181 3.53521 63.0615 2.30171L63.3287 2.03542L62.9459 2.75517C62.3975 3.84892 61.5542 4.76892 60.5107 5.41215C59.4671 6.05537 58.2645 6.39642 57.0375 6.39709H55.0223C53.2696 6.39711 51.5885 7.09096 50.349 8.32602L50.0818 8.59232ZM21.5945 13.2635C22.8352 12.0304 24.5154 11.3369 26.2677 11.3346H28.2613C29.4887 11.3356 30.692 10.9952 31.7358 10.3518C32.7796 9.70837 33.6225 8.78744 34.1697 7.69264L34.5452 6.97289L34.278 7.23919C33.665 7.85169 32.9365 8.33742 32.1346 8.66846C31.3326 8.99949 30.4729 9.1693 29.6047 9.16812H27.6184C26.3904 9.16828 25.1865 9.50904 24.1417 10.1523C23.097 10.7955 22.2525 11.7157 21.7028 12.81L21.3273 13.5298L21.5945 13.2635ZM34.8775 6.62021C36.0788 5.42344 37.7076 4.75043 39.4064 4.74886C40.5951 4.74696 41.76 4.41625 42.7712 3.79356C43.7826 3.17088 44.6005 2.28068 45.134 1.2221L45.5675 0.358398L45.2352 0.682285C44.6418 1.2768 43.9361 1.74827 43.1587 2.06946C42.3813 2.39065 41.5479 2.55522 40.7065 2.55364C39.5139 2.55888 38.3463 2.89497 37.3347 3.52424C36.3229 4.15351 35.5071 5.05109 34.9787 6.11639L34.5452 6.9441L34.8775 6.62021ZM51.1002 21.0152V11.3346C51.1002 11.1609 51.031 10.9943 50.9077 10.8714C50.7845 10.7486 50.6173 10.6796 50.443 10.6796H49.5617C49.3867 10.6796 49.2189 10.7484 49.0944 10.871C48.97 10.9936 48.8992 11.1602 48.8973 11.3346V20.7992L33.4185 18.309V24.8947L22.454 24.9379V15.7322C22.454 15.5579 22.385 15.3905 22.262 15.2665C22.1389 15.1425 21.9718 15.0719 21.7967 15.0701H20.9155C20.8283 15.0701 20.7418 15.0872 20.6613 15.1204C20.5806 15.1538 20.5074 15.2026 20.4456 15.264C20.3839 15.3255 20.335 15.3984 20.3015 15.4788C20.2682 15.5592 20.251 15.6453 20.251 15.7322V24.9451H13.642L13.5987 31.4803H9.19266V44.6589H0.366211V53.4398L15.845 53.4975L57.7382 21.6054L51.1002 21.0152ZM110.596 53.5118C110.596 53.5118 104.817 42.2333 103.987 38.138V20.5618C101.647 18.2298 93.1017 18.2298 90.7688 20.5618V40.3189C85.5321 35.1079 86.3555 20.5618 86.3555 11.7736C83.683 9.00977 73.8742 9.29047 70.9344 11.7736C70.9344 14.0913 71.0212 17.2293 70.9344 20.5618L81.9206 22.757V53.4975L110.596 53.5118Z" fill="#4B96FA"/>
<path d="M31.2729 34.0642L59.912 18.3521V53.4974L42.288 44.7092C42.288 44.7092 37.2319 47.8474 35.6789 49.1069C35.0867 49.5891 33.5121 51.2661 33.5121 51.2661L34.8339 48.6318L31.309 46.8756C31.309 46.8756 26.253 50.0067 24.6929 51.2661C24.1005 51.7484 22.526 53.4255 22.4898 53.4255L23.9344 50.4961L22.4898 49.0565L15.8809 53.447V42.514L27.8998 35.9283L31.2729 34.0642ZM61.9921 18.3521V53.4974H81.9854V22.7569L61.9921 18.3521Z" fill="#D9D9D9"/>
</svg>
