<svg width="236" height="94" viewBox="0 0 236 94" fill="none" xmlns="http://www.w3.org/2000/svg">
<path d="M58.2461 21.426C61.0107 22.0543 63.3984 22.934 65.3462 24.2535C68.9905 26.6411 70.8755 30.1598 70.8755 34.7466C70.8755 37.3856 70.2471 39.7104 69.0533 41.6582C67.8595 43.6688 66.1002 45.2397 63.8382 46.4335C66.6028 47.2503 68.7392 48.7583 70.2471 50.8946C71.7551 53.0309 72.5091 55.6699 72.5091 58.8116C72.5091 63.3984 71.0011 66.9798 67.9223 69.4931C64.9063 72.0065 60.4452 73.326 54.6018 73.326H44.4228L46.8733 64.278H53.0309C55.9212 64.278 58.0576 63.7125 59.5656 62.5187C61.0735 61.3249 61.8275 59.6912 61.8275 57.4292C61.8275 55.3558 61.1364 53.7221 59.7541 52.5911C58.3717 51.4601 56.2982 50.8946 53.5964 50.8946H48.5698V42.852H53.7221C55.7956 42.852 57.4292 42.2865 58.4974 41.0927C59.6284 39.8989 60.131 38.328 60.131 36.1917C60.131 33.2386 58.7487 31.2908 55.9841 30.3483L58.2461 21.426ZM21.4888 64.278H31.0394V29.6571H21.4888V20.6092H47.1246H52.4654C52.7168 20.6092 52.9053 20.6092 53.1566 20.6092L50.7061 29.6571H47.1246H41.4069V64.3409L38.9564 73.3888H21.4888V64.278ZM70.8126 93.9351H23.1225C16.7764 93.9351 10.9958 91.359 6.78595 87.1492C2.57615 82.9394 0 77.2216 0 70.8126V23.1225C0 16.7764 2.57615 10.9958 6.78595 6.78595C10.9958 2.57615 16.7135 0 23.1225 0H70.8126C77.1588 0 82.9394 2.57615 87.1492 6.78595C91.359 10.9958 93.9351 16.7135 93.9351 23.1225V70.8126C93.9351 77.1588 91.359 82.9394 87.1492 87.1492C82.9394 91.2962 77.1588 93.9351 70.8126 93.9351ZM23.1225 83.5049H70.8126C74.2684 83.5049 77.4729 82.0597 79.7977 79.7977C82.1226 77.4729 83.5049 74.3313 83.5049 70.8126V23.1225C83.5049 19.6667 82.0597 16.4622 79.7977 14.1374C77.4729 11.8126 74.3313 10.4303 70.8126 10.4303H23.1225C19.6667 10.4303 16.4622 11.8754 14.1374 14.1374C11.8126 16.4622 10.4303 19.6039 10.4303 23.1225V70.8126C10.4303 74.2684 11.8754 77.4729 14.1374 79.7977C16.4622 82.1226 19.6039 83.5049 23.1225 83.5049Z" fill="#22A23B"/>
<path fill-rule="evenodd" clip-rule="evenodd" d="M115.675 52.0886V83.5679H122.084V52.0886H115.675ZM140.557 52.0886V64.6552H134.085V52.0886H127.676V83.5679H134.085V70.75H140.557V83.5679H146.966V52.0886H140.557ZM168.015 67.4827C169.648 65.9747 170.654 63.4614 170.654 61.0737C170.654 55.7329 167.198 52.1515 162.36 52.1515H152.558V83.6307H162.485C167.889 83.6307 171.722 79.8607 171.722 74.2058C171.722 71.3155 170.339 68.8022 168.015 67.4827ZM161.229 58.1206C163.302 58.1206 164.182 59.1887 164.182 61.3251C164.182 63.5242 163.239 64.718 161.417 64.718H158.904V58.1834H161.229V58.1206ZM161.354 77.5359H158.904V70.6872H161.48C163.868 70.6872 165.187 71.881 165.187 74.143C165.187 76.3421 163.868 77.5359 161.354 77.5359ZM181.901 77.4731V70.4987H190.823V64.6552H181.901V58.1206H191.765V52.0886H175.555V83.5679H192.205V77.4731H181.901ZM205.337 84.0705C211.746 84.0705 215.391 80.4891 215.516 73.8916H209.107C208.919 76.6563 207.788 77.8501 205.337 77.8501C203.389 77.8501 202.258 76.5934 202.258 73.8916V61.6392C202.258 58.8746 203.389 57.6179 205.337 57.6179C207.788 57.6179 208.856 58.8117 209.044 61.6392H215.453C215.202 54.9789 211.746 51.3975 205.4 51.3975C199.242 51.3975 195.661 54.9789 195.661 61.6392V73.8916C195.661 80.5519 199.242 84.0705 205.337 84.0705ZM236 52.0886H217.087V58.1834H223.245V83.5679H229.779V58.1834H235.937V52.0886H236Z" fill="#22A23B"/>
<path fill-rule="evenodd" clip-rule="evenodd" d="M131.132 25.7615C132.765 24.2535 133.771 21.7402 133.771 19.3525C133.771 14.0117 130.315 10.4302 125.477 10.4302H115.675V41.9095H125.602C131.006 41.9095 134.839 38.1395 134.839 32.4846C134.839 29.6571 133.456 27.1438 131.132 25.7615ZM124.346 16.4622C126.419 16.4622 127.299 17.5304 127.299 19.6667C127.299 21.8658 126.356 23.0596 124.534 23.0596H122.021V16.4622H124.346ZM124.471 35.8775H122.021V28.9659H124.597C126.985 28.9659 128.304 30.1598 128.304 32.4217C128.304 34.6837 126.985 35.8775 124.471 35.8775ZM150.484 41.9095H157.082L149.542 10.4302H142.693L135.153 41.9095H141.75L142.756 36.6944H149.416L150.484 41.9095ZM144.075 30.5996L144.766 27.0181C145.206 24.7561 145.709 20.9233 146.023 18.41H146.212C146.526 20.9862 147.091 24.819 147.468 27.0181L148.159 30.5996H144.075ZM175.932 10.4302H160.035V41.9095H166.444V16.4622H175.932V10.4302ZM188.687 42.4122C195.096 42.4122 198.866 38.3909 198.866 31.6677V20.6092C198.866 13.8861 195.033 9.86475 188.687 9.86475C182.278 9.86475 178.508 13.8861 178.508 20.6092V31.6677C178.508 38.3909 182.278 42.4122 188.687 42.4122ZM188.687 36.1917C186.299 36.1917 185.105 34.6209 185.105 31.6677V20.6092C185.105 17.656 186.299 16.0852 188.687 16.0852C191.074 16.0852 192.268 17.656 192.268 20.6092V31.6677C192.268 34.6209 191.074 36.1917 188.687 36.1917ZM216.459 10.4302V22.9968H209.987V10.4302H203.578V41.9095H209.987V29.0916H216.459V41.9095H222.868V10.4302H216.459Z" fill="#22A23B"/>
</svg>
